PathFileType	4	(X/Y/Z)	/Users/itak/Documents/Research/Walk-IL/dataset/trc/00019_00004.trc
DataRate	CameraRate	NumFrames	NumMarkers	Units	OrigDataRate	OrigDataStartFrame	OrigNumFrames
100.000000	100.000000	4	53	mm	100.000000	340	909
Frame#	Time	RPSI			LPSI			L3			STRN			T10			C7			CLAV			RBAK			LBAK			LSHO			LUPA			LAEL			LAOL			LWTS			LWPS			LFRA			LIFD			LHPS			LHTS			RSHO			RUPA			RAEL			RAOL			RWTS			RWPS			RFRA			RIFD			RHTS			RHPS			RBHD			LFHD			RFHD			LBHD			LHIP			RHIP			RASI			LASI			LKNE			LTHI			LANK			LTIP			LTOE			LMT1			LMT5			LHEE			RKNE			RTHI			RANK			RTIP			RTOE			RMT1			RMT5			RHEE			
		X1	Y1	Z1	X2	Y2	Z2	X3	Y3	Z3	X4	Y4	Z4	X5	Y5	Z5	X6	Y6	Z6	X7	Y7	Z7	X8	Y8	Z8	X9	Y9	Z9	X10	Y10	Z10	X11	Y11	Z11	X12	Y12	Z12	X13	Y13	Z13	X14	Y14	Z14	X15	Y15	Z15	X16	Y16	Z16	X17	Y17	Z17	X18	Y18	Z18	X19	Y19	Z19	X20	Y20	Z20	X21	Y21	Z21	X22	Y22	Z22	X23	Y23	Z23	X24	Y24	Z24	X25	Y25	Z25	X26	Y26	Z26	X27	Y27	Z27	X28	Y28	Z28	X29	Y29	Z29	X30	Y30	Z30	X31	Y31	Z31	X32	Y32	Z32	X33	Y33	Z33	X34	Y34	Z34	X35	Y35	Z35	X36	Y36	Z36	X37	Y37	Z37	X38	Y38	Z38	X39	Y39	Z39	X40	Y40	Z40	X41	Y41	Z41	X42	Y42	Z42	X43	Y43	Z43	X44	Y44	Z44	X45	Y45	Z45	X46	Y46	Z46	X47	Y47	Z47	X48	Y48	Z48	X49	Y49	Z49	X50	Y50	Z50	X51	Y51	Z51	X52	Y52	Z52	X53	Y53	Z53	

341	3.4	1308.411743164062	1028.26220703125	175.2916412353516	1157.482666015625	1006.851440429688	114.6503982543945	1225.20556640625	1081.505859375	149.009765625	1289.5048828125	1265.527465820312	-65.70459747314453	1222.19580078125	1225.518432617188	171.3015441894531	1214.4296875	1491.168579101562	115.550163269043	1264.065185546875	1391.492797851562	-31.7751350402832	1284.139526367188	1362.400268554688	194.1565856933594	1119.262573242188	1442.466064453125	110.9458312988281	1071.30224609375	1439.618408203125	-5.918570518493652	994.1976318359375	1314.570922851562	24.23007392883301	972.580322265625	1101.410888671875	56.96295166015625	1056.236083984375	1100.325805664062	123.0246047973633	1044.85693359375	845.5196533203125	-0.6927114725112915	999.1593627929688	834.6550903320312	75.15312957763672	971.297607421875	984.0555419921875	57.16072845458984	1075.065307617188	660.2881469726562	-12.91289901733398	1006.327331542969	742.4769287109375	49.02363204956055	1037.113647460938	749.588134765625	-14.609450340271	1401.716064453125	1487.0107421875	85.18773651123047	1471.37158203125	1422.4833984375	122.1959228515625	1518.377319335938	1164.370361328125	184.7462310791016	1427.252075195312	1124.454956054688	166.7680816650391	1543.733154296875	913.1477661132812	43.68556213378906	1594.575927734375	897.9969482421875	119.5902709960938	1545.484130859375	1090.101196289062	175.2971496582031	1546.468383789062	731.710693359375	7.365527629852295	1576.01953125	819.5870971679688	-2.370261430740356	1609.0439453125	799.7511596679688	73.46160125732422	1178.15087890625	1666.46533203125	32.77993011474609	1243.454467773438	1635.51025390625	-172.5591888427734	1149.774536132812	1629.118041992188	-143.1863861083984	1313.587280273438	1671.038452148438	-15.89192581176758	1100.38427734375	905.3046875	-20.76784515380859	1448.972534179688	920.2291870117188	116.7746276855469	1426.89599609375	945.023193359375	-10.45007610321045	1204.207885742188	956.7274780273438	-96.261962890625	1229.875854492188	511.3571166992188	-186.0131378173828	1162.706665039062	619.0286865234375	-122.467903137207	1297.565307617188	20.55838584899902	-212.7804565429688	1242.636962890625	257.8530883789062	-174.2381591796875	1379.432006835938	73.2384033203125	-415.4015197753906	1389.925537109375	66.40892028808594	-356.8647766113281	1286.829223632812	48.67694091796875	-333.8796997070312	1345.8095703125	18.3675594329834	-139.4498596191406	1386.849731445312	491.9331665039062	188.5002593994141	1443.830688476562	754.0244750976562	128.2155914306641	1237.364135742188	81.80054473876953	457.0546875	1357.541381835938	381.9687194824219	256.5933837890625	1298.660522460938	29.34152412414551	246.0147705078125	1248.419067382812	46.58042526245117	283.1401062011719	1321.107788085938	27.18829917907715	346.8612060546875	1176.385620117188	107.9905090332031	482.631103515625	
342	3.41	1311.421508789062	1028.663696289062	164.656982421875	1160.096801757812	1007.459411621094	104.9495010375977	1227.94970703125	1081.5302734375	138.9450073242188	1290.889892578125	1265.683959960938	-76.16291046142578	1224.386474609375	1225.639526367188	161.0641326904297	1215.528930664062	1491.309326171875	105.300666809082	1265.173461914062	1391.613891601562	-42.19340896606445	1285.843383789062	1362.647827148438	183.7077178955078	1120.5751953125	1442.259033203125	100.9271392822266	1072.390258789062	1439.28271484375	-15.71912860870361	995.5457153320312	1314.05517578125	14.4068021774292	974.2808837890625	1100.891967773438	47.11536026000977	1058.048217773438	1099.947265625	112.9956283569336	1046.524658203125	844.951416015625	-10.29050254821777	1001.004699707031	834.1740112304688	65.71799468994141	973.0819091796875	983.5394287109375	47.49126434326172	1076.700805664062	659.6641235351562	-22.32779884338379	1008.123779296875	741.9976196289062	39.71012115478516	1038.69091796875	748.9976806640625	-24.07605171203613	1402.909057617188	1487.571533203125	74.42931365966797	1472.710205078125	1423.2509765625	111.4098205566406	1519.433837890625	1165.208129882812	174.6012573242188	1428.260620117188	1125.211547851562	156.6856536865234	1544.688598632812	912.52392578125	36.03095245361328	1595.447265625	898.1683349609375	112.0629348754883	1546.430786132812	1090.919067382812	165.7345428466797	1547.297241210938	730.7736206054688	1.680647492408752	1576.626953125	817.6793823242188	-8.170366287231445	1609.900268554688	799.49169921875	66.9366455078125	1179.001098632812	1666.676879882812	22.71123313903809	1243.15478515625	1635.582763671875	-182.9582214355469	1149.645629882812	1629.1396484375	-153.0531616210938	1314.146728515625	1671.36083984375	-26.75991439819336	1102.315063476562	905.921875	-30.17357635498047	1451.41357421875	920.0585327148438	105.8291091918945	1428.806640625	944.8706665039062	-21.24254608154297	1205.887817382812	956.8109741210938	-106.1356430053711	1231.349609375	511.0934448242188	-194.6958465576172	1164.191162109375	619.3018188476562	-131.296875	1297.855346679688	19.90042304992676	-214.4007415771484	1243.797729492188	257.4934997558594	-180.5256652832031	1382.403076171875	66.52323913574219	-417.6696166992188	1391.919677734375	60.9686164855957	-359.0234985351562	1288.34228515625	44.77601623535156	-336.3707275390625	1345.628173828125	19.56407928466797	-140.7370758056641	1391.47216796875	491.2173767089844	177.6912994384766	1446.705322265625	753.8924560546875	117.2831268310547	1239.856079101562	86.63124847412109	454.9432067871094	1361.89697265625	382.3740539550781	248.1180267333984	1298.426879882812	29.32424926757812	246.3670043945312	1249.209228515625	47.48332977294922	282.5137939453125	1321.885864257812	27.12845230102539	346.1940307617188	1179.371826171875	114.6783828735352	479.9526062011719	
343	3.42	1314.4443359375	1029.261474609375	153.99853515625	1162.705810546875	1008.291931152344	95.40999603271484	1230.680419921875	1081.822631835938	129.0179138183594	1292.159545898438	1266.070190429688	-86.71755218505859	1226.588012695312	1226.02490234375	150.8356628417969	1216.626586914062	1491.682739257812	94.95913696289062	1266.193969726562	1391.960205078125	-52.69520568847656	1287.561401367188	1363.155883789062	173.1661529541016	1121.85107421875	1442.315185546875	90.84907531738281	1073.411499023438	1439.21826171875	-25.5660514831543	996.87109375	1313.798461914062	4.500693798065186	975.986328125	1100.621948242188	37.0905876159668	1059.860229492188	1099.808227539062	102.784553527832	1048.14404296875	844.5806274414062	-19.97067070007324	1002.796203613281	833.9332275390625	56.18113327026367	974.8446655273438	983.2808227539062	37.66022109985352	1078.153076171875	659.2140502929688	-31.70946502685547	1009.820434570312	741.748291015625	30.39220428466797	1040.16455078125	748.5966796875	-33.55368041992188	1404.067016601562	1488.352661132812	63.49448013305664	1474.01513671875	1424.226806640625	100.4497146606445	1520.398071289062	1166.29150390625	164.2830810546875	1429.170043945312	1126.199584960938	146.3997955322266	1545.6328125	912.1130981445312	28.33265113830566	1596.247924804688	898.5632934570312	104.5494766235352	1547.280639648438	1091.973999023438	156.0428314208984	1548.105712890625	729.9022827148438	-3.774983406066895	1576.992919921875	815.2517700195312	-13.31526374816895	1610.728271484375	799.4951171875	60.4871940612793	1179.7578125	1667.082153320312	12.5778112411499	1242.711669921875	1635.865844726562	-193.4331817626953	1149.389892578125	1629.33740234375	-162.9701843261719	1314.591552734375	1671.920654296875	-37.73591613769531	1104.102783203125	906.81103515625	-39.39445114135742	1453.767700195312	920.0592041015625	94.64128875732422	1430.48046875	944.9527587890625	-32.18997955322266	1207.304931640625	957.181884765625	-115.9489593505859	1232.87841796875	511.1780700683594	-203.4784545898438	1165.729736328125	619.9386596679688	-140.2703094482422	1298.033569335938	19.4987678527832	-216.0017547607422	1244.770751953125	257.3741149902344	-186.8743286132812	1385.005615234375	60.33065032958984	-419.7572937011719	1393.620971679688	56.04798889160156	-361.0288696289062	1289.622924804688	41.27956390380859	-338.7223205566406	1345.388061523438	20.92711067199707	-142.0724334716797	1396.633544921875	490.482421875	166.0767059326172	1449.62451171875	753.9082641601562	105.9213333129883	1242.68994140625	91.97988128662109	452.3377075195312	1366.737548828125	382.8140563964844	238.8900756835938	1298.196655273438	29.32958221435547	246.6906585693359	1250.141845703125	48.45620727539062	281.6994323730469	1322.737915039062	27.1808967590332	345.3599548339844	1182.758911132812	122.0369110107422	476.6410827636719	
344	3.43	1317.45703125	1030.03125	143.3679046630859	1165.291870117188	1009.286499023438	86.05158996582031	1233.379516601562	1082.36474609375	119.2443161010742	1293.298095703125	1266.668090820312	-97.35195159912109	1228.79296875	1226.65380859375	140.6576843261719	1217.730712890625	1492.263427734375	84.55379486083984	1267.124267578125	1392.512939453125	-63.25078964233398	1289.301513671875	1363.908203125	162.5581665039062	1123.098510742188	1442.622436523438	80.74677276611328	1074.372680664062	1439.43115234375	-35.42811584472656	998.163818359375	1313.822265625	-5.447855472564697	977.693359375	1100.62060546875	26.92015647888184	1061.66845703125	1099.930053710938	92.42986297607422	1049.712524414062	844.426513671875	-29.71625900268555	1004.535217285156	833.9568481445312	46.5673828125	976.58544921875	983.300048828125	27.68701362609863	1079.451416015625	658.9596557617188	-41.04171752929688	1011.436157226562	741.7464599609375	21.07815170288086	1041.558715820312	748.4054565429688	-43.01993560791016	1405.1875	1489.3310546875	52.39211273193359	1475.291381835938	1425.386108398438	89.31525421142578	1521.280029296875	1167.611938476562	153.8121643066406	1429.997802734375	1127.421264648438	135.9407043457031	1546.562133789062	911.9187622070312	20.58225059509277	1596.995361328125	899.2013549804688	97.02480316162109	1548.048583984375	1093.260009765625	146.2351531982422	1548.87255859375	729.1403198242188	-9.068098068237305	1577.143798828125	812.4567260742188	-17.93192672729492	1611.516357421875	799.7493896484375	54.10506057739258	1180.432983398438	1667.647583007812	2.427107334136963	1242.129028320312	1636.340087890625	-203.9432983398438	1149.01171875	1629.6923828125	-172.8925933837891	1314.930541992188	1672.676635742188	-48.77255249023438	1105.738403320312	907.8934936523438	-48.40221786499023	1456.017333984375	920.2434692382812	83.24720764160156	1431.910766601562	945.268798828125	-43.25098037719727	1208.446899414062	957.8118286132812	-125.6684875488281	1234.44775390625	511.5291748046875	-212.3545684814453	1167.360107421875	620.9072265625	-149.4211730957031	1298.149536132812	19.27482414245605	-217.4732818603516	1245.61328125	257.4219970703125	-193.1360168457031	1387.179443359375	54.64458465576172	-421.5918884277344	1395.02734375	51.60550308227539	-362.80615234375	1290.662963867188	38.19900131225586	-340.8089599609375	1345.1435546875	22.30867385864258	-143.3569641113281	1402.376586914062	489.7384948730469	153.6430969238281	1452.60205078125	754.0772705078125	94.15613555908203	1245.925415039062	97.91364288330078	449.1966247558594	1372.1044921875	383.2481689453125	228.8176574707031	1298.0283203125	29.34222984313965	246.917236328125	1251.252319335938	49.52333068847656	280.6579284667969	1323.681274414062	27.4353084564209	344.3353576660156	1186.616943359375	130.1179962158203	472.6111450195312	
